<?xml version="1.0" encoding="utf-8"?>
<!-- Generator: Adobe Illustrator 25.4.1, SVG Export Plug-In . SVG Version: 6.00 Build 0)  -->
<svg version="1.1" id="Layer_1" xmlns="http://www.w3.org/2000/svg" xmlns:xlink="http://www.w3.org/1999/xlink" x="0px" y="0px"
	 viewBox="0 0 353.1 88.3" style="enable-background:new 0 0 353.1 88.3;" xml:space="preserve">
<style type="text/css">
	.st0{fill:#76CCD8;}
</style>
<g>
	<rect x="19.9" y="40.5" class="st0" width="8.9" height="8.9"/>
	<path class="st0" d="M51.5,5.1H19.9v8.9h29.4c18.8,0,28.1,7.7,28.1,30.5c0,22.7-10,31.5-28.9,31.5H19.9v8.9H50
		c23.9,0,36.7-14.9,36.7-40.4C86.8,18.8,74.8,5.1,51.5,5.1"/>
	<rect x="2.1" y="75.9" class="st0" width="8.9" height="8.9"/>
	<polygon class="st0" points="19.9,22.8 19.9,31.6 55.3,31.6 55.3,58.2 19.9,58.2 19.9,67.1 64.1,67.1 64.1,22.8 	"/>
	<polygon class="st0" points="145,75.9 145,84.8 86.8,84.8 86.8,78.8 131.1,13.9 90.6,13.9 90.6,5.1 144.4,5.1 144.4,11.3 
		100.3,75.9 	"/>
	<rect x="153.8" y="5.1" class="st0" width="9.8" height="79.6"/>
	<polygon class="st0" points="197.1,13.9 172.5,14 172.5,5.1 231.6,5.1 231.6,13.9 207,13.9 207,84.6 197.1,84.6 	"/>
	<polygon class="st0" points="245.5,5.1 215.9,84.6 226.4,84.6 249.9,21.7 273.4,84.6 283.9,84.6 254.3,5.1 	"/>
	<polygon class="st0" points="301.6,75.9 333.3,75.8 333.3,84.8 292.8,84.6 292.8,5.2 301.6,5.2 	"/>
	<rect x="342.1" y="75.9" class="st0" width="8.9" height="8.9"/>
</g>
</svg>
