<?xml version="1.0" encoding="utf-8"?>
<!-- Generator: Adobe Illustrator 25.4.1, SVG Export Plug-In . SVG Version: 6.00 Build 0)  -->
<svg version="1.1" id="Layer_1" xmlns="http://www.w3.org/2000/svg" xmlns:xlink="http://www.w3.org/1999/xlink" x="0px" y="0px"
	 viewBox="0 0 42 42" style="enable-background:new 0 0 42 42;" xml:space="preserve">
<style type="text/css">
	.st0{fill:#001120;}
</style>
<g>
	<rect x="19.4" y="37.8" class="st0" width="3.2" height="3.2"/>
	<path class="st0" d="M6.4,29.5v11.6h3.2V30.3c0-6.9,2.8-10.3,11.2-10.3c8.3,0,11.5,3.6,11.5,10.6v10.5h3.2V30
		c0-8.8-5.5-13.5-14.8-13.5C11.4,16.6,6.4,20.9,6.4,29.5"/>
	<polygon class="st0" points="12.9,41.1 16.2,41.1 16.2,28.1 25.9,28.1 25.9,41.1 29.1,41.1 29.1,24.8 12.9,24.8 	"/>
	<path class="st0" d="M15.6,15.1c1.6-0.3,3.3-0.5,5.3-0.5c2,0,3.9,0.2,5.5,0.6c1.7-1.5,2.8-3.7,2.8-6.1C29.1,4.6,25.5,1,21,1
		c-4.5,0-8.1,3.6-8.1,8.1C12.9,11.5,13.9,13.6,15.6,15.1"/>
</g>
</svg>
