<?xml version="1.0" encoding="utf-8"?>
<!-- Generator: Adobe Illustrator 25.4.1, SVG Export Plug-In . SVG Version: 6.00 Build 0)  -->
<svg version="1.1" id="Layer_1" xmlns="http://www.w3.org/2000/svg" xmlns:xlink="http://www.w3.org/1999/xlink" x="0px" y="0px"
	 viewBox="0 0 42 42" style="enable-background:new 0 0 42 42;" xml:space="preserve">
<style type="text/css">
	.st0{fill:#FFFFFF;}
</style>
<g>
	<rect x="1.9" y="36.8" class="st0" width="4.5" height="4.5"/>
	<rect x="11" y="36.8" class="st0" width="4.5" height="4.5"/>
	<rect x="20" y="36.8" class="st0" width="4.5" height="4.5"/>
	<path class="st0" d="M33.6,7.3C29,0.5,19.8-1.3,13,3.2C6.2,7.8,4.4,17,9,23.8c3.9,5.8,11.2,8,17.5,5.6l8,11.9l5.7-3.9l-8-11.9
		C36.7,20.6,37.5,13.1,33.6,7.3 M26.8,23.9C22.2,27,16,25.7,12.9,21.1S11,10.3,15.6,7.2s10.8-1.9,13.9,2.7
		C32.7,14.6,31.4,20.8,26.8,23.9"/>
</g>
</svg>
